# File created by Blade
# Date/Time:  Tue Jan 27 18:05:41 2015
# Frame Rate: 120.000 fps
#------------------------------------------------------
:FULLY-SPECIFIED
:DEGREES
3507
root -1.356879 31.949749 -6.551455 6.417344 -0.933495 1.753179
Spine -4.735849 -18.733413 -5.505930
Head 10.917022 13.150626 1.204936
LeftShoulder -13.236027 17.394311 8.900088
LeftArm 21.645677 35.795073 -73.651096
LeftForeArm -2.396810 -0.000000 16.318437
LeftHand -11.741422 0.000000 -1.776196
LeftHandThumb1 -26.253704 0.000000 33.147579
RightShoulder -14.000068 9.770057 -42.664552
RightArm 0.999851 63.787603 26.189405
RightForeArm 16.271337 0.000000 39.708197
RightHand -14.577794 0.000000 -4.779733
RightHandThumb1 -24.326973 -0.000000 -32.862282
LeftUpLeg -0.946307 3.844650 -0.481376
LeftLeg 0.160378 -0.000000 -0.000000
LeftFoot -19.438904 19.367580 -25.947279
LeftToeBase 8.749358 -0.000000 -0.000000
RightUpLeg -1.150587 0.206502 -3.035218
RightLeg -2.676227 -0.000000 0.000000
RightFoot -12.826518 -10.561060 9.474764
RightToeBase 4.555075 -0.000000 -0.000000
3508
root -1.354052 31.949896 -6.555096 6.440021 -0.947311 1.750115
Spine -4.698972 -18.694109 -5.565474
Head 10.751295 13.092292 1.260950
LeftShoulder -13.200886 17.352183 8.952139
LeftArm 21.707405 35.837669 -73.594999
LeftForeArm -2.433302 -0.000000 16.347797
LeftHand -11.738742 -0.000000 -1.679814
LeftHandThumb1 -26.253704 0.000000 33.147579
RightShoulder -13.977773 9.741650 -42.649021
RightArm 0.762911 63.569485 25.968063
RightForeArm 16.319086 -0.000000 37.774359
RightHand -14.962852 -0.000000 -5.264474
RightHandThumb1 -24.326973 -0.000000 -32.862282
LeftUpLeg -0.973887 3.855930 -0.486288
LeftLeg 0.158646 -0.000000 -0.000000
LeftFoot -19.444632 19.359710 -25.969488
LeftToeBase 8.710340 -0.000000 -0.000000
RightUpLeg -1.186211 0.211660 -3.040261
RightLeg -2.665988 -0.000000 0.000000
RightFoot -12.821101 -10.537422 9.494356
RightToeBase 4.597666 -0.000000 -0.000000
3509
root -1.349283 31.950411 -6.558329 6.451423 -0.979675 1.751801
Spine -4.660038 -18.664962 -5.611216
Head 10.648170 13.250695 1.421647
LeftShoulder -13.187736 17.310507 8.963415
LeftArm 21.768282 35.946820 -73.481482
LeftForeArm -2.576527 0.000000 16.424204
LeftHand -11.773010 -0.000000 -1.583890
LeftHandThumb1 -26.253704 0.000000 33.147579
RightShoulder -13.948146 9.796130 -42.693580
RightArm 0.486895 63.245175 25.795461
RightForeArm 16.278523 -0.000000 35.948470
RightHand -15.468222 0.000000 -5.984840
RightHandThumb1 -24.326973 -0.000000 -32.862282
LeftUpLeg -0.986266 3.900073 -0.502114
LeftLeg 0.156125 -0.000000 -0.000000
LeftFoot -19.425269 19.356994 -25.936971
LeftToeBase 8.716983 -0.000000 -0.000000
RightUpLeg -1.220137 0.208376 -3.049802
RightLeg -2.646399 -0.000000 0.000000
RightFoot -12.803628 -10.522936 9.446212
RightToeBase 4.649914 -0.000000 -0.000000
3510
root -1.346101 31.950536 -6.561585 6.467350 -0.991822 1.745363
Spine -4.619900 -18.655894 -5.654294
Head 10.496621 13.302624 1.503017
LeftShoulder -13.171356 17.256762 9.006871
LeftArm 21.781700 35.876685 -73.515939
LeftForeArm -2.599980 -0.000000 16.399091
LeftHand -11.715311 -0.000000 -1.707572
LeftHandThumb1 -26.253704 0.000000 33.147579
RightShoulder -13.919946 9.859657 -42.721856
RightArm 0.260984 62.790211 25.629134
RightForeArm 16.183871 0.000000 34.024921
RightHand -15.884776 -0.000000 -6.815069
RightHandThumb1 -24.326973 -0.000000 -32.862282
LeftUpLeg -1.002757 3.919807 -0.506010
LeftLeg 0.147742 -0.000000 -0.000000
LeftFoot -19.433716 19.357329 -25.949081
LeftToeBase 8.731380 -0.000000 -0.000000
RightUpLeg -1.244955 0.201898 -3.052417
RightLeg -2.641999 -0.000000 0.000000
RightFoot -12.807704 -10.491260 9.493085
RightToeBase 4.609786 -0.000000 -0.000000
3511
root -1.343327 31.950726 -6.565447 6.493400 -1.003391 1.743475
Spine -4.594429 -18.654030 -5.699820
Head 10.357924 13.340382 1.566635
LeftShoulder -13.176643 17.257529 9.035135
LeftArm 21.857111 35.894113 -73.457607
LeftForeArm -2.589705 -0.000000 16.458345
LeftHand -11.719719 -0.000000 -1.685705
LeftHandThumb1 -26.253704 0.000000 33.147579
RightShoulder -13.903906 10.025626 -42.775246
RightArm -0.030755 62.214906 25.425150
RightForeArm 16.355033 0.000000 32.101146
RightHand -16.247870 -0.000000 -7.716649
RightHandThumb1 -24.326973 -0.000000 -32.862282
LeftUpLeg -1.032262 3.937618 -0.512179
LeftLeg 0.138966 -0.000000 -0.000000
LeftFoot -19.408718 19.368343 -25.901587
LeftToeBase 8.720513 -0.000000 -0.000000
RightUpLeg -1.283601 0.188602 -3.056134
RightLeg -2.635720 -0.000000 0.000000
RightFoot -12.793586 -10.461046 9.474460
RightToeBase 4.589742 -0.000000 -0.000000
3512
root -1.340849 31.950487 -6.568587 6.512757 -1.025915 1.741713
Spine -4.562096 -18.628710 -5.749980
Head 10.231437 13.372969 1.640753
LeftShoulder -13.173790 17.247394 9.070668
LeftArm 21.966558 36.026351 -73.340508
LeftForeArm -2.705264 -0.000000 16.511112
LeftHand -11.766936 -0.000000 -1.550705
LeftHandThumb1 -26.253704 0.000000 33.147579
RightShoulder -13.901875 10.004294 -42.765002
RightArm -0.083085 61.728416 25.379165
RightForeArm 16.606453 0.000000 30.086211
RightHand -16.689621 -0.000000 -8.432390
RightHandThumb1 -24.326973 -0.000000 -32.862282
LeftUpLeg -1.051177 3.960588 -0.517933
LeftLeg 0.133142 -0.000000 -0.000000
LeftFoot -19.409451 19.365147 -25.883718
LeftToeBase 8.726117 -0.000000 -0.000000
RightUpLeg -1.314281 0.189030 -3.060774
RightLeg -2.632069 -0.000000 0.000000
RightFoot -12.794400 -10.447871 9.463892
RightToeBase 4.620986 -0.000000 -0.000000
3513
root -1.338348 31.950346 -6.572225 6.534243 -1.034197 1.735129
Spine -4.532153 -18.632598 -5.784954
Head 10.103837 13.401964 1.695920
LeftShoulder -13.173835 17.222818 9.107269
LeftArm 22.024997 36.059778 -73.301093
LeftForeArm -2.691901 -0.000000 16.534430
LeftHand -11.790318 0.000000 -1.485107
LeftHandThumb1 -26.253704 0.000000 33.147579
RightShoulder -13.883361 10.047488 -42.777436
RightArm -0.177928 61.150106 25.307694
RightForeArm 16.882068 -0.000000 28.041721
RightHand -17.046242 0.000000 -9.417163
RightHandThumb1 -24.326973 -0.000000 -32.862282
LeftUpLeg -1.070847 3.960292 -0.518852
LeftLeg 0.115369 -0.000000 -0.000000
LeftFoot -19.413157 19.378725 -25.886850
LeftToeBase 8.762913 -0.000000 -0.000000
RightUpLeg -1.342901 0.170395 -3.059636
RightLeg -2.635395 -0.000000 0.000000
RightFoot -12.772934 -10.415912 9.482095
RightToeBase 4.582695 -0.000000 -0.000000
3514
root -1.337514 31.950627 -6.574894 6.555090 -1.020519 1.717522
Spine -4.501703 -18.660285 -5.828384
Head 10.013599 13.445143 1.811450
LeftShoulder -13.117318 17.154568 9.223737
LeftArm 21.832290 35.513957 -73.745815
LeftForeArm -2.091013 -0.000000 16.396038
LeftHand -11.758021 0.000000 -1.828003
LeftHandThumb1 -26.253704 0.000000 33.147579
RightShoulder -13.889946 10.106320 -42.730480
RightArm -0.118670 60.511858 25.294885
RightForeArm 17.173009 0.000000 25.899408
RightHand -17.274026 -0.000000 -10.128433
RightHandThumb1 -24.326973 -0.000000 -32.862282
LeftUpLeg -1.095119 3.965459 -0.502981
LeftLeg 0.110644 -0.000000 -0.000000
LeftFoot -19.396649 19.354254 -25.880467
LeftToeBase 8.742282 -0.000000 -0.000000
RightUpLeg -1.359637 0.138663 -3.040643
RightLeg -2.648295 -0.000000 0.000000
RightFoot -12.747632 -10.397737 9.458857
RightToeBase 4.566793 -0.000000 -0.000000
3515
root -1.335297 31.950687 -6.578362 6.576913 -1.023304 1.718872
Spine -4.470894 -18.651201 -5.877448
Head 9.899079 13.465584 1.872225
LeftShoulder -13.083102 17.102174 9.295894
LeftArm 21.811972 35.457629 -73.824453
LeftForeArm -1.958633 -0.000000 16.371450
LeftHand -11.678543 0.000000 -1.858177
LeftHandThumb1 -26.253704 0.000000 33.147579
RightShoulder -13.888630 10.152296 -42.746209
RightArm -0.169994 59.841848 25.277745
RightForeArm 17.469140 -0.000000 23.824756
RightHand -17.785815 0.000000 -10.736662
RightHandThumb1 -24.326973 -0.000000 -32.862282
LeftUpLeg -1.119060 3.979360 -0.511671
LeftLeg 0.104311 -0.000000 -0.000000
LeftFoot -19.375854 19.351697 -25.850707
LeftToeBase 8.722812 -0.000000 -0.000000
RightUpLeg -1.382730 0.122889 -3.046536
RightLeg -2.662383 -0.000000 0.000000
RightFoot -12.742772 -10.381093 9.487759
RightToeBase 4.626023 -0.000000 -0.000000
3516
root -1.332347 31.950649 -6.581444 6.601278 -1.031721 1.718734
Spine -4.447106 -18.646642 -5.916584
Head 9.766955 13.489921 1.896832
LeftShoulder -13.071630 17.071174 9.345369
LeftArm 21.852610 35.513091 -73.807733
LeftForeArm -1.999730 -0.000000 16.381673
LeftHand -11.672527 -0.000000 -1.825651
LeftHandThumb1 -26.253704 0.000000 33.147579
RightShoulder -13.893804 10.082337 -42.718946
RightArm 0.000936 59.199113 25.401554
RightForeArm 17.958852 -0.000000 21.629335
RightHand -17.985840 0.000000 -11.247173
RightHandThumb1 -24.326973 -0.000000 -32.862282
LeftUpLeg -1.138474 3.993013 -0.522927
LeftLeg 0.082759 -0.000000 -0.000000
LeftFoot -19.396982 19.344965 -25.913300
LeftToeBase 8.762272 -0.000000 -0.000000
RightUpLeg -1.410891 0.102256 -3.052456
RightLeg -2.669389 -0.000000 0.000000
RightFoot -12.720410 -10.346484 9.483114
RightToeBase 4.658702 -0.000000 -0.000000
3517
root -1.328280 31.950130 -6.585232 6.620572 -1.054843 1.724075
Spine -4.412793 -18.637652 -5.962486
Head 9.645001 13.518691 1.941262
LeftShoulder -13.067204 17.028133 9.403760
LeftArm 21.862208 35.523187 -73.833730
LeftForeArm -2.068566 -0.000000 16.405954
LeftHand -11.765701 0.000000 -1.844015
LeftHandThumb1 -26.253704 0.000000 33.147579
RightShoulder -13.914217 10.001380 -42.684935
RightArm 0.269468 58.562289 25.615496
RightForeArm 18.474537 -0.000000 19.420599
RightHand -18.309034 -0.000000 -11.770801
RightHandThumb1 -24.326973 -0.000000 -32.862282
LeftUpLeg -1.155011 4.015799 -0.540422
LeftLeg 0.066588 -0.000000 -0.000000
LeftFoot -19.391743 19.363591 -25.889256
LeftToeBase 8.749172 -0.000000 -0.000000
RightUpLeg -1.439434 0.106752 -3.068986
RightLeg -2.673706 -0.000000 0.000000
RightFoot -12.710095 -10.331973 9.467197
RightToeBase 4.535826 -0.000000 -0.000000
3518
root -1.326119 31.949388 -6.588323 6.646295 -1.068013 1.721560
Spine -4.384736 -18.623425 -6.001389
Head 9.524794 13.554598 1.994002
LeftShoulder -13.053397 16.969851 9.477778
LeftArm 21.846260 35.549062 -73.876733
LeftForeArm -2.027394 0.000000 16.423491
LeftHand -11.768140 0.000000 -1.815069
LeftHandThumb1 -26.253704 0.000000 33.147579
RightShoulder -13.958681 9.959942 -42.666157
RightArm 0.529116 57.824636 25.848084
RightForeArm 19.084826 -0.000000 17.224533
RightHand -18.518983 -0.000000 -12.010398
RightHandThumb1 -24.326973 -0.000000 -32.862282
LeftUpLeg -1.177992 4.036024 -0.543771
LeftLeg 0.048432 -0.000000 -0.000000
LeftFoot -19.348931 19.374607 -25.803515
LeftToeBase 8.677316 -0.000000 -0.000000
RightUpLeg -1.470703 0.113804 -3.071398
RightLeg -2.678119 -0.000000 0.000000
RightFoot -12.711126 -10.332054 9.468022
RightToeBase 4.572418 -0.000000 -0.000000
